:SAMPLES-PER-SECOND 30
:FULLY-SPECIFIED
:DEGREES
405
root  -5.69037 39.1397 -27.8087 -15.7109 -70.3194 11.9511
RightUpLeg  -28.6664 -17.1288 -7.5204
RightLeg  38.7391 -3.26242 -3.24887
RightFoot  2.47275 0.0598572 -0.35025
RightToes  0.00048216 0.542163 -0.142577
Spine  33.4845 3.11313 8.87505
Spine1  13.8028 11.4423 -15.9237
HEad  -10.7634 -10.6592 4.86264
LeftShoulder1  10.3317 -16.1149 -45.9226
LeftArm  -21.941 4.02403 -23.7475
LeftForeArm  3.75879 -67.3209 -28.5194
LeftHand  -0.25398 0.0180481 5.50724
RightShoulder  5.01342 12.5087 25.1872
RightArm  38.6105 56.3772 71.0839
RightForeArm  -31.1539 24.3128 6.58903
RightHand  -0.0291918 -6.99808 -1.17265
LeftUpLeg  -7.11305 5.278 -6.50276
LeftLeg  27.3638 6.23025 3.84163
LeftFoot  -14.9589 0.153783 2.0543
LeftToes  1.06244e-005 4.65854e-005 -8.18505e-006
406
root  -7.59485 39.1929 -27.8504 -15.437 -69.2774 12.4087
RightUpLeg  -27.4695 -18.7945 -8.29898
RightLeg  22.1036 -4.60449 -1.5406
RightFoot  1.35947 -0.115369 1.13667
RightToes  0.00048216 0.542163 -0.142577
Spine  32.4117 2.99063 8.79858
Spine1  13.733 11.1995 -16.0285
HEad  -10.2681 -10.727 4.50842
LeftShoulder1  10.2962 -16.1068 -45.7791
LeftArm  -21.2558 3.6511 -23.7907
LeftForeArm  3.09179 -66.7188 -27.6194
LeftHand  -0.25398 0.0180481 5.50724
RightShoulder  5.01403 12.4259 25.3616
RightArm  37.6723 55.9372 70.1319
RightForeArm  -31.3375 24.3085 6.59484
RightHand  -0.0256439 -6.85895 -1.34602
LeftUpLeg  -4.17023 4.76171 -5.55856
LeftLeg  26.0533 5.33726 3.18046
LeftFoot  -16.6745 0.131785 0.682527
LeftToes  1.06244e-005 4.65854e-005 -8.18505e-006
407
root  -9.62405 39.1132 -27.8978 -14.1537 -67.4184 11.6729
RightUpLeg  -24.2053 -16.8726 -11.3672
RightLeg  6.70928 -10.2431 1.96756
RightFoot  -0.620788 -0.305992 3.22652
RightToes  0.00048216 0.542163 -0.142577
Spine  30.9205 2.54155 9.138
Spine1  13.8569 10.661 -15.9535
HEad  -9.62152 -10.7672 3.71891
LeftShoulder1  10.3126 -16.1693 -45.7034
LeftArm  -20.967 3.7103 -23.897
LeftForeArm  2.68087 -66.238 -26.9255
LeftHand  -0.25398 0.0180481 5.50724
RightShoulder  5.03207 12.4006 25.5324
RightArm  36.2817 55.0797 69.0798
RightForeArm  -31.3158 24.563 6.65317
RightHand  -0.0250107 -6.83275 -1.5759
LeftUpLeg  -1.41393 3.61037 -4.20144
LeftLeg  25.5842 4.64713 2.76628
LeftFoot  -18.3842 0.0835351 -0.459777
LeftToes  1.06244e-005 4.65854e-005 -8.18505e-006
408
root  -11.7606 38.921 -27.9882 -13.1212 -65.7368 10.5091
RightUpLeg  -20.997 -13.5528 -13.6408
RightLeg  -2.30062 -15.5479 4.59452
RightFoot  -3.12393 -0.32004 4.11619
RightToes  0.00048216 0.542163 -0.142577
Spine  29.5954 2.42917 9.35923
Spine1  14.2359 10.2496 -15.1327
HEad  -8.67326 -10.7216 2.5332
LeftShoulder1  10.3968 -16.2616 -45.8664
LeftArm  -21.0127 4.10602 -24.0182
LeftForeArm  2.50474 -65.9475 -26.5138
LeftHand  -0.25398 0.0180481 5.50724
RightShoulder  5.03565 12.3494 25.6631
RightArm  35.5699 54.177 68.1603
RightForeArm  -31.4872 24.7808 6.70998
RightHand  -0.0267032 -6.81224 -1.70232
LeftUpLeg  1.65431 2.50386 -2.30756
LeftLeg  26.0234 4.07203 2.51196
LeftFoot  -20.1196 -0.0199175 -1.77956
LeftToes  1.06244e-005 4.65854e-005 -8.18505e-006
409
root  -13.9178 38.695 -28.1263 -12.7793 -65.2077 9.36696
RightUpLeg  -20.3528 -13.1376 -12.7993
RightLeg  -0.805802 -15.3683 4.20131
RightFoot  -2.65595 -0.311241 3.87521
RightToes  0.00048216 0.542163 -0.142577
Spine  29.0637 2.75063 9.7333
Spine1  14.6869 10.2985 -13.9153
HEad  -7.47966 -10.3592 1.378
LeftShoulder1  10.4564 -16.2335 -46.2065
LeftArm  -21.1626 4.56649 -23.6535
LeftForeArm  2.62433 -65.9213 -26.4611
LeftHand  -0.25398 0.0180481 5.50724
RightShoulder  5.08023 12.3338 25.9888
RightArm  36.1028 53.5024 67.97
RightForeArm  -32.0135 24.53 6.67173
RightHand  -0.0272813 -6.43471 -1.94543
LeftUpLeg  4.92867 2.02008 0.278421
LeftLeg  27.3268 2.57608 1.77136
LeftFoot  -21.176 -0.391421 -5.98735
LeftToes  1.06244e-005 4.65854e-005 -8.18505e-006
410
root  -16.0443 38.3832 -28.3018 -11.7531 -65.1467 7.25441
RightUpLeg  -21.6153 -14.5204 -10.6549
RightLeg  7.11675 -12.0175 2.9225
RightFoot  2.59043 -0.38506 3.30124
RightToes  0.00048216 0.542163 -0.142577
Spine  29.4123 2.57854 10.9626
Spine1  14.6693 10.4924 -13.707
HEad  -6.53494 -9.47018 0.452182
LeftShoulder1  10.4055 -16.0481 -46.4243
LeftArm  -21.4459 4.809 -22.7637
LeftForeArm  2.80691 -65.9641 -26.5012
LeftHand  -0.25398 0.0180481 5.50724
RightShoulder  5.20788 12.4663 26.5418
RightArm  36.9556 53.0501 68.6635
RightForeArm  -32.3134 23.9772 6.5777
RightHand  -0.0320029 -5.75526 -2.41209
LeftUpLeg  6.16697 1.18936 3.49713
LeftLeg  32.4037 1.20737 1.18892
LeftFoot  -19.653 -0.745524 -12.337
LeftToes  1.06244e-005 4.65854e-005 -8.18505e-006
411
root  -18.0236 38.0509 -28.5092 -8.47861 -64.2804 2.88167
RightUpLeg  -24.2313 -22.4211 -5.36957
RightLeg  15.9705 -2.62865 1.73807
RightFoot  8.1215 -0.315821 2.19335
RightToes  0.00048216 0.542163 -0.142577
Spine  30.5908 1.36865 13.248
Spine1  14.0829 10.2083 -14.2709
HEad  -6.5507 -8.18878 -0.411816
LeftShoulder1  10.3284 -15.9039 -46.4235
LeftArm  -22.2527 4.69752 -22.1181
LeftForeArm  2.79207 -65.8589 -26.3491
LeftHand  -0.25398 0.0180481 5.50724
RightShoulder  5.32542 12.6965 26.8136
RightArm  37.302 52.9767 69.5458
RightForeArm  -32.0225 23.8066 6.55815
RightHand  -0.0374941 -5.33808 -2.75621
LeftUpLeg  3.00817 -1.37183 6.81621
LeftLeg  43.0445 2.27823 2.80532
LeftFoot  -12.0102 -0.0745924 -14.2786
LeftToes  1.06244e-005 4.65854e-005 -8.18505e-006
412
root  -19.7298 37.7514 -28.7478 -3.7457 -62.3963 -3.06198
RightUpLeg  -26.9034 -28.9256 0.145115
RightLeg  24.464 2.91493 0.811488
RightFoot  7.76074 0.175583 -0.842603
RightToes  0.00048216 0.542163 -0.142577
Spine  32.4082 -0.289477 15.8958
Spine1  13.5656 9.36278 -13.5231
HEad  -7.79455 -6.96322 -1.04081
LeftShoulder1  10.3672 -16.0096 -46.3424
LeftArm  -23.5731 4.07279 -22.2772
LeftForeArm  2.67143 -65.6243 -26.0257
LeftHand  -0.25398 0.0180481 5.50724
RightShoulder  5.31498 12.8664 26.3915
RightArm  37.4948 53.6768 69.7362
RightForeArm  -31.6838 24.3184 6.61028
RightHand  -0.0368686 -5.39447 -2.66376
LeftUpLeg  -4.01348 -5.33943 9.72887
LeftLeg  56.2119 3.63022 6.27774
LeftFoot  0.832933 0.783444 -7.89153
LeftToes  1.06244e-005 4.65854e-005 -8.18505e-006
413
root  -21.2899 37.4865 -29.0148 -0.56192 -60.562 -7.46475
RightUpLeg  -27.0502 -28.5159 1.99835
RightLeg  31.5177 0.070514 -0.203545
RightFoot  2.48467 0.554183 -4.41669
RightToes  0.00048216 0.542163 -0.142577
Spine  34.3503 -1.26634 17.3109
Spine1  13.5948 8.59814 -11.2288
HEad  -9.66734 -6.09817 -0.814621
LeftShoulder1  10.4715 -16.2987 -46.1176
LeftArm  -24.527 2.57063 -22.8061
LeftForeArm  2.5334 -65.213 -25.4691
LeftHand  -0.25398 0.0180481 5.50724
RightShoulder  5.2177 12.9239 25.6563
RightArm  37.0698 55.0893 68.9905
RightForeArm  -31.2265 24.9529 6.74105
RightHand  -0.0367183 -5.42242 -2.2576
LeftUpLeg  -11.6639 -8.66952 11.5626
LeftLeg  66.8882 2.69841 7.55867
LeftFoot  9.45224 0.0355852 -0.209932
LeftToes  1.06244e-005 4.65854e-005 -8.18505e-006
414
root  -23.0091 37.5338 -29.3134 -0.49498 -59.6811 -8.04535
RightUpLeg  -25.4088 -28.2444 2.7613
RightLeg  35.0021 -1.4769 -1.37455
RightFoot  -2.42478 0.457426 -5.96715
RightToes  0.00048216 0.542163 -0.142577
Spine  35.8476 -0.92341 16.2405
Spine1  13.9491 8.43959 -9.81174
HEad  -11.167 -5.53427 0.317083
LeftShoulder1  10.4857 -16.5588 -45.561
LeftArm  -24.297 0.0528892 -22.9145
LeftForeArm  2.09566 -64.3384 -24.376
LeftHand  -0.25398 0.0180481 5.50724
RightShoulder  5.16374 12.9342 25.2928
RightArm  35.0275 56.41 67.777
RightForeArm  -30.3214 25.0056 6.72009
RightHand  -0.0410511 -4.97744 -1.80732
LeftUpLeg  -17.9197 -9.49369 11.5274
LeftLeg  72.4339 1.54079 6.47743
LeftFoot  9.23817 -0.431768 2.06337
LeftToes  1.06244e-005 4.65854e-005 -8.18505e-006
415
root  -24.7931 37.8043 -29.5716 -0.980591 -59.0797 -7.27785
RightUpLeg  -23.4485 -28.5149 3.08093
RightLeg  36.3562 -1.9476 -1.8209
RightFoot  -5.27692 0.281293 -5.96568
RightToes  0.00048216 0.542163 -0.142577
Spine  36.6884 -0.252847 14.7634
Spine1  14.0471 8.65286 -10.0777
HEad  -11.7523 -5.16487 1.43152
LeftShoulder1  10.4131 -16.7379 -44.8148
LeftArm  -23.2294 -3.02359 -22.575
LeftForeArm  1.23096 -62.9053 -22.7739
LeftHand  -0.25398 0.0180481 5.50724
RightShoulder  5.17509 12.9241 25.3853
RightArm  31.1975 57.0114 66.5099
RightForeArm  -28.8268 24.3461 6.51837
RightHand  -0.0439397 -4.25863 -1.41112
LeftUpLeg  -23.3148 -8.27394 10.571
LeftLeg  73.0003 1.07286 5.03116
LeftFoot  4.8177 -0.0908156 0.393445
LeftToes  1.06244e-005 4.65854e-005 -8.18505e-006
416
root  -26.5271 38.0498 -29.7553 -0.428329 -57.8925 -7.32922
RightUpLeg  -21.8007 -29.8213 3.888
RightLeg  37.4392 -2.2526 -2.14063
RightFoot  -8.10652 0.122888 -6.37596
RightToes  0.00048216 0.542163 -0.142577
Spine  37.1647 0.0665765 14.1853
Spine1  13.6264 8.69622 -10.6334
HEad  -11.6741 -4.95828 1.71315
LeftShoulder1  10.3736 -16.9015 -44.2603
LeftArm  -22.2961 -6.08087 -22.4149
LeftForeArm  0.32797 -61.1841 -21.073
LeftHand  -0.25398 0.0180481 5.50724
RightShoulder  5.18917 12.8866 25.5504
RightArm  26.9339 57.1597 64.9446
RightForeArm  -27.2649 23.3942 6.34136
RightHand  -0.0433448 -3.58672 -1.12943
LeftUpLeg  -28.0519 -6.21422 9.2409
LeftLeg  69.5329 1.32038 4.70906
LeftFoot  2.00741 0.172087 -1.53291
LeftToes  1.06244e-005 4.65854e-005 -8.18505e-006
